<?xml version="1.0" encoding="UTF-8" standalone="no"?>
<!-- Created with Inkscape (http://www.inkscape.org/) -->

<svg
   xmlns:osb="http://www.openswatchbook.org/uri/2009/osb"
   xmlns:dc="http://purl.org/dc/elements/1.1/"
   xmlns:cc="http://creativecommons.org/ns#"
   xmlns:rdf="http://www.w3.org/1999/02/22-rdf-syntax-ns#"
   xmlns:svg="http://www.w3.org/2000/svg"
   xmlns="http://www.w3.org/2000/svg"
   xmlns:sodipodi="http://sodipodi.sourceforge.net/DTD/sodipodi-0.dtd"
   xmlns:inkscape="http://www.inkscape.org/namespaces/inkscape"
   width="377.95276"
   height="377.95276"
   viewBox="0 0 100 100"
   version="1.1"
   id="svg8"
   inkscape:version="0.92.4 (5da689c313, 2019-01-14)"
   sodipodi:docname="logos.svg">
  <defs
     id="defs2">
    <linearGradient
       id="linearGradient1339"
       osb:paint="solid">
      <stop
         style="stop-color:#00f4ff;stop-opacity:1;"
         offset="0"
         id="stop1337" />
    </linearGradient>
    <inkscape:perspective
       sodipodi:type="inkscape:persp3d"
       inkscape:vp_x="0 : 148.49999 : 1"
       inkscape:vp_y="0 : 999.99996 : 0"
       inkscape:vp_z="210 : 148.49999 : 1"
       inkscape:persp3d-origin="105.00001 : 98.999996 : 1"
       id="perspective908" />
  </defs>
  <sodipodi:namedview
     id="base"
     pagecolor="#ffffff"
     bordercolor="#666666"
     borderopacity="1.0"
     inkscape:pageopacity="0.0"
     inkscape:pageshadow="2"
     inkscape:zoom="0.98994949"
     inkscape:cx="-32.306955"
     inkscape:cy="94.038912"
     inkscape:document-units="mm"
     inkscape:current-layer="layer1"
     showgrid="false"
     inkscape:snap-nodes="false"
     inkscape:window-width="3840"
     inkscape:window-height="2066"
     inkscape:window-x="-11"
     inkscape:window-y="-11"
     inkscape:window-maximized="1"
     units="px" />
  <metadata
     id="metadata5">
    <rdf:RDF>
      <cc:Work
         rdf:about="">
        <dc:format>image/svg+xml</dc:format>
        <dc:type
           rdf:resource="http://purl.org/dc/dcmitype/StillImage" />
        <dc:title></dc:title>
      </cc:Work>
    </rdf:RDF>
  </metadata>
  <g
     inkscape:label="Layer 1"
     inkscape:groupmode="layer"
     id="layer1"
     transform="translate(0,-197)">
    <path
       style="fill:#000000;fill-opacity:1;stroke:#000000;stroke-width:0;stroke-linecap:butt;stroke-linejoin:miter;stroke-miterlimit:4;stroke-dasharray:none;stroke-opacity:1"
       d="m -61.193042,-409.11383 c 0.12273,-0.48804 3.90525,-9.6411 3.90525,-9.6411 0,0 4.51546,-16.23127 4.51546,-17.45164 0,-1.22008 -0.12274,-15.8651 -0.12274,-16.47528 0,-0.61078 -4.51547,-17.57366 -5.36974,-17.57366 -0.8542,0 -7.68851,-11.71581 -9.15298,-13.30235 -1.46445,-1.58654 -9.76317,-24.40784 -9.76317,-24.40784 l -14.52268,-17.93982 c 0,0 -3.78325,-11.4718 -6.83423,-11.22764 -3.050968,0.24402 -3.539128,0.24402 -3.539128,0.24402 l -9.76317,-20.99075 38.564508,39.78491 14.27862,25.38419 7.07828,7.07836 3.6612,4.88147 c 0,0 5.12564,-2.92891 5.24769,-3.5391 0.12274,-0.61077 0.063,-8.69643 0.063,-8.69643 0,0 -1.56281,-4.57438 -2.17302,-4.57438 -0.61019,0 -2.3069,-3.07079 -2.3069,-3.07079 l -0.62184,-2.29874 0.78736,-1.76804 0.43703,-6.40924 2.83831,-4.79116 6.46807,-2.68475 6.22406,1.0988 3.66115,3.78312 1.70858,5.00363 0.12274,3.90527 0.97635,1.0988 -0.24387,4.02728 -1.22037,1.34282 -1.95261,0.24401 -1.70854,10.73946 1.34238,2.6849 6.10196,3.78327 6.10197,-7.56638 4.3934,-3.78327 9.27505,-19.28234 c 0,0 4.3934,-6.46802 5.00357,-7.20021 0.61019,-0.73205 24.89613,-24.16382 24.89613,-24.16382 l 18.18384,-10.98363 -12.08184,17.20763 -7.07835,2.80691 -8.7869,13.30235 -11.83779,12.08184 -7.68849,22.45528 -3.29504,6.59017 -6.71219,9.88511 -8.17665,19.28235 -2.31876,16.59729 5.24769,17.20763 3.66119,10.37329 -0.36617,11.5938 -5.49179,15.0109 -3.29504,23.67565 0.36617,16.10926 -4.75953,19.16019 -3.90528,10.61731 -0.24402,6.83433 -1.70855,5.00364 1.09836,11.10548 0.97636,4.27144 -2.80691,3.66126 c 0,0 -7.07829,1.46439 -7.20034,-0.24401 -0.12274,-1.70855 -3.17299,-2.80691 -3.05099,-3.66111 0.12274,-0.85478 2.56287,-10.12942 2.56287,-10.12942 l -2.31876,-4.88148 2.92893,-2.56289 -6.71218,-22.33312 -4.14935,-22.57743 c 0,0 0.73234,-11.34965 0.73234,-11.83783 0,-0.48803 -4.27141,-20.86873 -4.39342,-21.72293 -0.12274,-0.85479 -6.34607,-15.98726 -6.34607,-15.98726 z"
       id="path826"
       inkscape:connector-curvature="0"
       sodipodi:nodetypes="ccsssccccccccccccsccccccccccccccccccccccccccccccccccccccccccccccccccccsccc" />
    <ellipse
       style="opacity:1;fill:#000000;fill-opacity:1;stroke:#ffffff;stroke-width:0;stroke-miterlimit:4;stroke-dasharray:none;stroke-opacity:0.07523511"
       id="path828"
       cx="-37.708344"
       cy="-507.45126"
       rx="11.161349"
       ry="12.595077" />
    <path
       style="fill:none;stroke:#000000;stroke-width:0.26458332px;stroke-linecap:butt;stroke-linejoin:miter;stroke-opacity:1"
       d="m -793.16001,-435.39267 9.76317,20.99074 c 0,0 3.17085,-0.90926 4.11579,-0.38954 0.94494,0.51971 4.67214,6.96583 6.25757,11.37316 1.58544,4.40734 14.52269,17.93982 14.52269,17.93982 0,0 7.52071,24.02891 18.95449,37.77779 11.43378,13.74889 1.22842,49.75112 1.22842,49.75112 0,0 -7.90827,13.82491 -4.80458,25.48054 3.10369,11.65562 7.97013,17.51425 10.9467,38.25569 2.97656,20.74145 -1.51169,24.3373 9.92198,56.20287 11.43368,31.86559 7.8429,-2.29401 9.59104,-12.64111"
       id="path832"
       inkscape:connector-curvature="0"
       sodipodi:nodetypes="cccscscsssc" />
    <path
       style="fill:none;stroke:#000000;stroke-width:0.26458332px;stroke-linecap:butt;stroke-linejoin:miter;stroke-opacity:1"
       d="m -1070.4635,-447.74799 38.5645,39.78491 14.2786,25.3842 c 0,0 10.1959,9.97212 10.7395,11.95982 0.5436,1.98771 5.3628,-3.63469 5.3628,-3.63469 0,0 0.2126,-8.71707 0,-9.42578 -0.2126,-0.7087 -4.1267,-5.51396 -4.532,-6.82023 -0.4053,-1.30626 -0.3976,-3.14204 0.1655,-4.06678 0.5631,-0.92474 -0.9252,-3.26347 -0.689,-3.87768 0.2363,-0.61421 -0.5669,-3.07106 2.0789,-6.68546 2.6458,-3.61439 4.65383,-5.19717 6.68546,-5.55152 2.03162,-0.35435 7.15792,-0.35435 9.61476,2.24423 2.45685,2.59859 4.15774,6.77995 3.96875,8.57534 -0.18898,1.79538 -0.82311,5.03899 -0.19894,5.20076 0.62417,0.16177 1.23838,0.84686 1.07301,1.6973 -0.16536,0.85045 0.14175,3.77976 -0.96856,4.44122 -1.1103,0.66146 -2.3732,-0.38675 -2.54495,0.57439 -0.17175,0.96114 -1.70854,10.73946 -1.70854,10.73946 0,0 1.34238,2.6849 1.34238,2.6849 l 6.10196,3.78327 c 0,0 6.96005,-8.36631 10.49537,-11.34965 3.53532,-2.98334 9.27505,-19.28234 9.27505,-19.28234 l 5.3397,-7.86785 24.56,-23.49618 18.18384,-10.98363 -12.08184,17.20763 -7.07835,2.80691 -8.7869,13.30235 -11.83779,12.08184 -7.68849,22.45528 -10.00723,16.47528 -8.17665,19.28235 -2.31876,16.59729 8.90888,27.58092 -0.36617,11.5938 -5.49179,15.0109 -3.29504,23.67565 0.36617,16.10926 -8.66481,29.7775 -1.95257,11.83797 2.07472,15.37692 -2.80691,3.66125 -7.45136,0.0381 c 0,0 -3.1404,-2.40543 -2.7395,-3.74177 0.4009,-1.33635 2.5024,-10.33084 2.5024,-10.33084 0,0 -2.3188,-4.88148 -2.3188,-4.88148 l 2.92897,-2.56289 c 0,0 -10.86157,-44.91055 -10.86157,-44.91055 0,0 2.0695,-11.21427 1.7354,-11.54836 -0.3341,-0.33408 -12.428,-40.15724 -12.0271,-41.02587 0.4009,-0.86862 1.6036,-13.29666 1.6704,-13.76438 0.067,-0.46772 8.8199,-24.92288 8.8199,-24.92288 0,0 -5.8131,-32.07234 -5.9467,-33.14142 -0.1337,-1.06908 -10.0894,-14.56619 -11.0249,-16.23663 -0.9354,-1.67043 -9.1609,-24.98786 -8.8867,-23.4529 0.2742,1.53497 -14.2485,-16.40485 -14.2485,-16.40485 0,0 -4.6608,-11.32436 -5.5294,-11.52481 -0.8687,-0.20045 -4.8439,0.54119 -4.8439,0.54119 z"
       id="path834"
       inkscape:connector-curvature="0" />
    <g
       id="g863"
       transform="translate(-937.45604,-452.15124)">
      <path
         inkscape:connector-curvature="0"
         id="path836"
         d="m 28.690604,7.6104847 9.76317,20.9907643 5.010933,-0.641437 c 0,0 0.200451,-5.078122 -0.200454,-5.479026 C 42.863349,22.079881 28.690604,7.6104847 28.690604,7.6104847 Z"
         style="fill:#48b7b7;fill-opacity:1;stroke:#000000;stroke-width:0.26458332px;stroke-linecap:butt;stroke-linejoin:miter;stroke-opacity:1" />
      <path
         inkscape:connector-curvature="0"
         id="path838"
         d="m 43.397889,22.681238 0.06682,5.278574 5.362427,11.625056 c 0,0 18.42798,7.810523 18.42798,7.810523 z"
         style="fill:#4ac7c0;fill-opacity:1;stroke:#000000;stroke-width:0.26458332px;stroke-linecap:butt;stroke-linejoin:miter;stroke-opacity:1" />
      <path
         inkscape:connector-curvature="0"
         id="path840"
         d="m 48.827136,39.584868 c 0,0 13.775169,17.116768 14.342134,16.644297 0.566965,-0.472469 4.085844,-8.833774 4.085844,-8.833774 z"
         style="fill:#5ce6e2;fill-opacity:1;stroke:#000000;stroke-width:0.26458332px;stroke-linecap:butt;stroke-linejoin:miter;stroke-opacity:1" />
      <path
         inkscape:connector-curvature="0"
         id="path842"
         d="m 63.263763,56.229165 3.991351,-8.833774 14.278618,25.384194 c 0,0 -9.482021,7.781798 -9.765504,6.506128 -0.283482,-1.27567 -8.504465,-23.056548 -8.504465,-23.056548 z"
         style="fill:#2480b7;fill-opacity:1;stroke:#000000;stroke-width:0.26458332px;stroke-linecap:butt;stroke-linejoin:miter;stroke-opacity:1" />
      <path
         inkscape:connector-curvature="0"
         id="path844"
         d="m 92.542073,85.188898 c 0,0 -9.153983,10.958052 -9.621702,10.022607 C 82.452648,94.276062 71.494599,79.175334 71.494599,79.175334 l 10.039133,-6.395749 z"
         style="fill:#54b3ce;fill-opacity:1;stroke:#000000;stroke-width:0.26458332px;stroke-linecap:butt;stroke-linejoin:miter;stroke-opacity:1" />
      <path
         inkscape:connector-curvature="0"
         id="path846"
         d="M 92.542073,85.188898 120.22145,115.25013 82.519466,95.278322 Z"
         style="fill:#00c2b0;fill-opacity:1;stroke:#000000;stroke-width:0.26458332px;stroke-linecap:butt;stroke-linejoin:miter;stroke-opacity:1" />
      <path
         inkscape:connector-curvature="0"
         id="path848"
         d="m 92.542073,85.188898 c 0,0 5.093899,-4.084175 5.093899,-4.084175 l 14.286808,-0.269851 8.29867,34.415258 -27.679377,-30.061232 5.093899,-4.084175 14.286808,-0.269851 8.29867,34.415258 z"
         style="fill:#00a5c2;fill-opacity:1;stroke:#000000;stroke-width:0.26458332px;stroke-linecap:butt;stroke-linejoin:miter;stroke-opacity:1" />
      <path
         inkscape:connector-curvature="0"
         id="path850"
         d="m 82.519466,95.27832 6.414466,33.54235 19.577498,-19.71115 z"
         style="fill:#77ead8;fill-opacity:1;stroke:#000000;stroke-width:0.26458332px;stroke-linecap:butt;stroke-linejoin:miter;stroke-opacity:1" />
      <path
         inkscape:connector-curvature="0"
         id="path852"
         d="m 88.933932,128.82067 19.577498,-19.71115 11.71002,6.14061 -2.31876,16.59729 z"
         style="fill:#5ebfbb;fill-opacity:1;stroke:#000000;stroke-width:0.26458332px;stroke-linecap:butt;stroke-linejoin:miter;stroke-opacity:1" />
    </g>
    <g
       id="g853" />
    <path
       style="opacity:1;fill:#19a4ab;fill-opacity:1;stroke:#009bb5;stroke-width:0;stroke-miterlimit:4;stroke-dasharray:none;stroke-opacity:1"
       d="m -486.6033,-456.75336 a 54.892799,53.619934 0 0 0 -54.89277,53.61997 54.892799,53.619934 0 0 0 54.89277,53.61999 54.892799,53.619934 0 0 0 54.89277,-53.61999 54.892799,53.619934 0 0 0 -54.89277,-53.61997 z m -0.4563,12.10985 a 10.394345,10.441592 0 0 1 10.39419,10.44174 10.394345,10.441592 0 0 1 -10.39419,10.44174 10.394345,10.441592 0 0 1 -10.3942,-10.44174 10.394345,10.441592 0 0 1 10.3942,-10.44174 z m 28.71452,17.11575 c 3.8625,0.0443 7.29283,1.69792 9.07232,4.78007 2.99702,5.19099 0.1434,12.4104 -6.39806,16.18712 l -18.69292,10.79263 c -0.74079,0.42769 -1.49631,0.79128 -2.25774,1.09398 v 24.40885 c 0,6.59005 -4.82546,11.8954 -10.8195,11.8954 -5.99404,0 -10.81949,-5.30535 -10.81949,-11.8954 v -24.59798 c -0.64156,-0.28456 -1.27949,-0.60553 -1.90893,-0.96893 l -16.85117,-9.72912 c -7.05149,-4.07119 -10.31595,-11.52788 -7.31893,-16.71888 1.68583,-2.91993 4.98316,-4.48275 8.8005,-4.56664 0.18556,-0.004 0.37227,-0.004 0.56017,-0.002 2.81849,0.0439 5.88554,0.87731 8.77776,2.54713 l 16.85168,9.72911 c 0.76116,0.43946 1.47531,0.92021 2.14509,1.43144 0.62802,-0.49209 1.30071,-0.95198 2.02107,-1.36787 l 18.69291,-10.7921 c 2.65747,-1.5343 5.50248,-2.25754 8.14524,-2.22726 z"
       id="path910"
       inkscape:connector-curvature="0" />
    <g
       id="g1309"
       transform="translate(5.1770515,-37.864834)">
      <path
         sodipodi:nodetypes="cccc"
         inkscape:connector-curvature="0"
         id="path1291"
         d="m -78.997024,-220.82739 59.106025,38.22285 -0.141741,113.723581 z"
         style="fill:#d8985d;fill-opacity:1;stroke:#000000;stroke-width:0;stroke-linecap:butt;stroke-linejoin:miter;stroke-miterlimit:4;stroke-dasharray:none;stroke-opacity:1" />
      <path
         sodipodi:nodetypes="cccc"
         style="fill:#5e2c05;fill-opacity:1;stroke:#000000;stroke-width:0;stroke-linecap:butt;stroke-linejoin:miter;stroke-miterlimit:4;stroke-dasharray:none;stroke-opacity:1"
         d="m 40.345688,-220.82739 -58.633554,38.1756 -0.330729,113.770831 z"
         id="path1302"
         inkscape:connector-curvature="0" />
      <ellipse
         ry="16.001499"
         rx="16.691217"
         cy="-209.53099"
         cx="-18.82662"
         id="path1304"
         style="opacity:1;fill:#ffdfad;fill-opacity:1;stroke:#009bb5;stroke-width:0;stroke-miterlimit:4;stroke-dasharray:none;stroke-opacity:1" />
    </g>
    <ellipse
       style="opacity:1;fill:#00f4ff;fill-opacity:1;stroke:#009bb5;stroke-width:0;stroke-linecap:round;stroke-miterlimit:4;stroke-dasharray:none;stroke-opacity:1"
       id="path1343"
       cx="-265.50125"
       cy="-198.43831"
       rx="70.857162"
       ry="70.209068" />
    <ellipse
       style="opacity:1;fill:#00f4ff;fill-opacity:0;stroke:#ffffff;stroke-width:8.20800018;stroke-miterlimit:4;stroke-dasharray:none;stroke-opacity:1"
       id="path1313"
       cx="-264.89243"
       cy="-240.92113"
       rx="13.949617"
       ry="12.818569" />
    <path
       style="fill:#00f4ff;fill-opacity:0;stroke:#ffffff;stroke-width:8.76900005;stroke-linecap:round;stroke-linejoin:miter;stroke-miterlimit:4;stroke-dasharray:none;stroke-opacity:1"
       d="m -245.26828,-198.31517 c 0,0 -0.41835,-8.86111 -2.92906,-12.20603 -2.83077,-3.77133 -7.67673,-6.01194 -12.28309,-7.0019 -5.53692,-1.18996 -11.75939,-0.74237 -16.91288,1.60854 -4.82502,2.20107 -9.71511,5.98608 -11.52722,10.97596 -1.5275,4.20618 -1.03502,9.66354 1.51177,13.34147 4.27007,6.16659 13.35304,6.81442 20.0309,10.219 5.38495,2.7454 11.82791,4.01022 16.157,8.23197 3.31167,3.22956 6.78535,7.58012 6.61397,12.20604 -0.2332,6.29485 -4.68344,12.87771 -10.20442,15.89621 -6.7727,3.70284 -15.82229,2.4246 -23.14891,0 -4.61734,-1.52801 -9.01135,-4.65805 -11.71619,-8.70508 -1.93319,-2.8925 -2.5511,-10.12438 -2.5511,-10.12438"
       id="path1321"
       inkscape:connector-curvature="0"
       sodipodi:nodetypes="caaaaaaaaaaac" />
    <g
       id="g872"
       transform="translate(-1273.9484,-459.36751)">
      <path
         style="fill:#19a4ab;fill-opacity:1;stroke:#000000;stroke-width:0;stroke-linecap:butt;stroke-linejoin:miter;stroke-miterlimit:4;stroke-dasharray:none;stroke-opacity:1"
         d="m 26.55245,7.6104847 9.76317,20.9907643 9.1202,-1.409838 z"
         id="path855"
         inkscape:connector-curvature="0" />
      <path
         style="fill:#4aeaf2;fill-opacity:1;stroke:#000000;stroke-width:0;stroke-linecap:butt;stroke-linejoin:miter;stroke-miterlimit:4;stroke-dasharray:none;stroke-opacity:1"
         d="m 42.09159,28.685103 c 0.12971,1.55652 2.23169,6.7362 4.90664,11.309611 2.3786,4.066743 13.00894,15.169266 15.43954,18.338546 0.16192,0.211128 0.5384,0.70664 0.61996,0.839891 0.071,0.115957 0.50947,0.875377 0.50947,0.922182 0,0.829411 13.63774,28.473017 16.01417,33.316842 0.22509,0.458783 0.34551,0.93379 0.34551,0.93379 l 0.24086,1.039674 5.75938,31.224081 c 0,0 19.32307,-28.957283 17.89625,-32.848573 -1.1568,-3.154939 -4.7861,-4.537104 -9.80184,-9.667956 -1.17069,-1.197552 -12.94249,-12.786637 -12.94249,-12.786637 0,0 -13.95323,-20.204145 -16.19405,-23.730708 C 62.64417,44.049284 45.78187,27.965244 45.78187,27.965244 Z"
         id="path857"
         inkscape:connector-curvature="0"
         sodipodi:nodetypes="csssssccccscscc" />
      <path
         style="fill:#19a4ab;fill-opacity:1;stroke:#000000;stroke-width:0;stroke-linecap:butt;stroke-linejoin:miter;stroke-miterlimit:4;stroke-dasharray:none;stroke-opacity:1"
         d="m 78.44361,153.87717 c 0.66817,-1.60362 5.98924,-24.16632 7.92694,-26.23768 1.93771,-2.07136 16.14212,-26.07837 16.14212,-26.07837 l 3.60605,-8.241425 29.53828,-39.333543 4.78262,-7.172229 0.48621,-0.621883 0.52629,-0.623289 24.10458,-22.946634 -0.97635,9.030913 -20.09075,24.690954 -0.3922,0.504249 -0.48988,0.769155 -17.34758,38.350394 c 0,0 -7.69195,15.667618 -8.17665,19.282348 -0.4847,3.61473 -2.31876,16.59729 -2.31876,16.59729 z"
         id="path859"
         inkscape:connector-curvature="0"
         sodipodi:nodetypes="csccccccccccccscc" />
      <ellipse
         style="opacity:1;fill:#19a4ab;fill-opacity:1;stroke:#ffffff;stroke-width:0;stroke-miterlimit:4;stroke-dasharray:none;stroke-opacity:0.07523511"
         id="ellipse861"
         cx="103.155"
         cy="56.668056"
         rx="12.74433"
         ry="13.301542" />
      <path
         style="fill:#4aeaf2;fill-opacity:1;stroke:#000000;stroke-width:0;stroke-linecap:butt;stroke-linejoin:miter;stroke-miterlimit:4;stroke-dasharray:none;stroke-opacity:1"
         d="m 166.82495,21.856053 c 6.72857,-2.835309 16.91559,-10.217558 16.91559,-10.217558 l -11.23918,16.007462 c 0,0 -6.58466,2.611138 -6.58466,2.611138 z"
         id="path863"
         inkscape:connector-curvature="0" />
      <path
         style="fill:#19a4ab;fill-opacity:1;stroke:#000000;stroke-width:0;stroke-linecap:butt;stroke-linejoin:miter;stroke-miterlimit:4;stroke-dasharray:none;stroke-opacity:1"
         d="m 78.44361,153.87717 -2.47225,12.78373 0.03,0.71906 28.76824,94.56581 c 0,0 10.0731,-34.04456 11.11693,-37.1204 1.04383,-3.07585 10.29293,-32.16869 2.92887,-39.23599 -7.36406,-7.06729 -40.37184,-31.71221 -40.37184,-31.71221 z"
         id="path866"
         inkscape:connector-curvature="0"
         sodipodi:nodetypes="ccccsscc" />
      <path
         style="fill:#4aeaf2;fill-opacity:1;stroke:#000000;stroke-width:0;stroke-linecap:butt;stroke-linejoin:miter;stroke-miterlimit:4;stroke-dasharray:none;stroke-opacity:1"
         d="m 80.19765,154.00766 35.5418,-20.75318 8.01049,24.79962 0.0769,0.42605 -0.40613,9.99861 c -1.1374,5.51623 -3.19749,10.0848 -4.84349,14.58386 z"
         id="path868"
         inkscape:connector-curvature="0"
         sodipodi:nodetypes="ccccccc" />
      <path
         style="fill:#4aeaf2;fill-opacity:1;stroke:#000000;stroke-width:0;stroke-linecap:butt;stroke-linejoin:miter;stroke-miterlimit:4;stroke-dasharray:none;stroke-opacity:1"
         d="m 77.01195,176.73021 c 0,0.53454 8.22597,46.58491 8.22597,46.58491 l 16.80589,66.7674 3.56286,-6.77955 -1.77107,-20.20312 z"
         id="path870"
         inkscape:connector-curvature="0"
         sodipodi:nodetypes="cccccc" />
    </g>
    <g
       transform="translate(37.545861,-587.21518)"
       id="g900">
      <path
         inkscape:connector-curvature="0"
         id="path874"
         d="m 26.55245,7.6104847 9.76317,20.9907643 9.1202,-1.409838 z"
         style="fill:#19a4ab;fill-opacity:1;stroke:#000000;stroke-width:0;stroke-linecap:butt;stroke-linejoin:miter;stroke-miterlimit:4;stroke-dasharray:none;stroke-opacity:1" />
      <path
         sodipodi:nodetypes="csaaaaaaccscscc"
         inkscape:connector-curvature="0"
         id="path876"
         d="m 42.09159,28.685103 c 0.12971,1.55652 2.23169,6.7362 4.90664,11.309611 2.3786,4.066743 10.490967,12.064381 15.43954,18.338546 0.215493,0.273218 0.432095,0.546989 0.61996,0.839891 0.1896,0.295606 0.348424,0.6101 0.50947,0.922182 5.650563,10.949916 11.201916,21.973486 16.01417,33.316842 0.129617,0.30553 0.250282,0.615858 0.34551,0.93379 0.102071,0.340778 0.168434,0.691388 0.24086,1.039674 2.154762,10.361931 5.75938,31.224081 5.75938,31.224081 0,0 19.32307,-28.957283 17.89625,-32.848573 -1.1568,-3.154939 -4.7861,-4.537104 -9.80184,-9.667956 -1.17069,-1.197552 -12.94249,-12.786637 -12.94249,-12.786637 0,0 -13.95323,-20.204145 -16.19405,-23.730708 C 62.64417,44.049284 45.78187,27.965244 45.78187,27.965244 Z"
         style="fill:#4aeaf2;fill-opacity:1;stroke:#000000;stroke-width:0;stroke-linecap:butt;stroke-linejoin:miter;stroke-miterlimit:4;stroke-dasharray:none;stroke-opacity:1" />
      <path
         sodipodi:nodetypes="csccaaaaccaaaaacc"
         inkscape:connector-curvature="0"
         id="path878"
         d="m 78.44361,153.87717 c 0.66817,-1.60362 5.98924,-24.16632 7.92694,-26.23768 1.93771,-2.07136 16.14212,-26.07837 16.14212,-26.07837 l 3.60605,-8.241425 c 0,0 20.06317,-25.951804 29.53828,-39.333543 1.66052,-2.345166 3.09937,-4.843318 4.78262,-7.172229 0.15414,-0.21326 0.32027,-0.417676 0.48621,-0.621883 0.17149,-0.211029 0.33982,-0.425371 0.52629,-0.623289 7.60715,-8.074382 24.10458,-22.946634 24.10458,-22.946634 l -0.97635,9.030913 c 0,0 -13.48469,16.387532 -20.09075,24.690954 -0.13257,0.166636 -0.2695,0.330213 -0.3922,0.504249 -0.17515,0.248436 -0.34523,0.501809 -0.48988,0.769155 -6.67676,12.339995 -11.71718,25.499201 -17.34758,38.350394 -2.80164,6.394648 -6.3149,12.553708 -8.17665,19.282348 -1.48966,5.38387 -2.31876,16.59729 -2.31876,16.59729 z"
         style="fill:#19a4ab;fill-opacity:1;stroke:#000000;stroke-width:0;stroke-linecap:butt;stroke-linejoin:miter;stroke-miterlimit:4;stroke-dasharray:none;stroke-opacity:1" />
      <ellipse
         ry="13.301542"
         rx="12.74433"
         cy="56.668056"
         cx="103.155"
         id="ellipse880"
         style="opacity:1;fill:#19a4ab;fill-opacity:1;stroke:#ffffff;stroke-width:0;stroke-miterlimit:4;stroke-dasharray:none;stroke-opacity:0.07523511" />
      <path
         inkscape:connector-curvature="0"
         id="path882"
         d="m 166.82495,21.856053 c 6.72857,-2.835309 16.91559,-10.217558 16.91559,-10.217558 l -11.23918,16.007462 c 0,0 -6.58466,2.611138 -6.58466,2.611138 z"
         style="fill:#4aeaf2;fill-opacity:1;stroke:#000000;stroke-width:0;stroke-linecap:butt;stroke-linejoin:miter;stroke-miterlimit:4;stroke-dasharray:none;stroke-opacity:1" />
      <path
         sodipodi:nodetypes="ccccsscc"
         inkscape:connector-curvature="0"
         id="path884"
         d="m 78.44361,153.87717 -2.47225,12.78373 0.03,0.71906 28.76824,94.56581 c 0,0 10.0731,-34.04456 11.11693,-37.1204 1.04383,-3.07585 10.29293,-32.16869 2.92887,-39.23599 -7.36406,-7.06729 -40.37184,-31.71221 -40.37184,-31.71221 z"
         style="fill:#19a4ab;fill-opacity:1;stroke:#000000;stroke-width:0;stroke-linecap:butt;stroke-linejoin:miter;stroke-miterlimit:4;stroke-dasharray:none;stroke-opacity:1" />
      <path
         sodipodi:nodetypes="ccaaacc"
         inkscape:connector-curvature="0"
         id="path886"
         d="m 80.19765,154.00766 35.5418,-20.75318 c 0,0 5.89916,16.37301 8.01049,24.79962 0.0351,0.13998 0.067,0.28208 0.0769,0.42605 0.22994,3.32768 0.19309,6.71726 -0.40613,9.99861 -0.9202,5.03904 -3.19749,10.0848 -4.84349,14.58386 z"
         style="fill:#4aeaf2;fill-opacity:1;stroke:#000000;stroke-width:0;stroke-linecap:butt;stroke-linejoin:miter;stroke-miterlimit:4;stroke-dasharray:none;stroke-opacity:1" />
      <path
         sodipodi:nodetypes="cccccc"
         inkscape:connector-curvature="0"
         id="path888"
         d="m 77.01195,176.73021 c 0,0.53454 8.22597,46.58491 8.22597,46.58491 l 16.80589,66.7674 3.56286,-6.77955 -1.77107,-20.20312 z"
         style="fill:#4aeaf2;fill-opacity:1;stroke:#000000;stroke-width:0;stroke-linecap:butt;stroke-linejoin:miter;stroke-miterlimit:4;stroke-dasharray:none;stroke-opacity:1" />
    </g>
    <path
       style="fill:#f3d5a9;fill-opacity:1;stroke:#000000;stroke-width:0;stroke-linecap:butt;stroke-linejoin:miter;stroke-miterlimit:4;stroke-dasharray:none;stroke-opacity:1"
       d="m 43.82876,245.30256 c 0.029,-0.0725 1.13025,-2.32186 1.49434,-3.55449 0.17951,-0.60774 0.32405,-1.23794 0.33369,-1.87156 0.0177,-1.16322 -0.47877,-3.24983 -0.50779,-3.45294 -0.029,-0.20312 -0.26114,-1.30574 -0.26114,-1.30574 l -1.39279,-5.10687 c 3.6688,1.95633 3.90804,-0.0303 3.03646,-3.29408 0,0 0.73806,1.16395 1.17091,1.69818 0.3572,0.44087 0.84138,0.77371 1.17052,1.2359 0.51345,0.72101 1.0169,1.49573 1.22478,2.35612 0.20104,0.83205 -0.0135,2.56794 -0.0135,2.56794 l 0.16621,0.75091 0.99196,0.92354 1.61041,0.43525 c 0,0 1.27671,-0.20312 1.40729,-0.23214 0.13057,-0.029 0.82696,-0.59483 0.82696,-0.59483 0,0 -0.50248,1.79973 -0.69639,2.71303 -0.16298,0.76759 -0.41864,1.53706 -0.39172,2.3213 0.0263,0.7655 0.29371,1.50791 0.5368,2.23426 0.19247,0.57509 0.72541,1.66844 0.72541,1.66844 l 0.47877,0.89951 c -3.74718,4.9401 -7.74553,4.55713 -11.91121,-0.39173 z"
       id="path1099"
       inkscape:connector-curvature="0"
       sodipodi:nodetypes="caaccccaaaccccccaaacccc" />
    <ellipse
       cx="50.608707"
       cy="219.77031"
       rx="3.9130476"
       ry="4.2781625"
       style="opacity:1;fill:#ffdfad;fill-opacity:1;stroke:#ffffff;stroke-width:0.0314251;stroke-miterlimit:4;stroke-dasharray:none;stroke-opacity:0.07523511"
       id="ellipse861-2" />
    <path
       sodipodi:nodetypes="cacc"
       inkscape:connector-curvature="0"
       id="path902"
       d="m 26.9991,203.14931 c 0,0 0.95624,5.13876 2.95454,6.33995 0.89807,0.53983 3.1392,-0.16415 3.1392,-0.16415 z"
       style="fill:#e1ae75;fill-opacity:1;stroke:#d1a460;stroke-width:0;stroke-linecap:butt;stroke-linejoin:miter;stroke-miterlimit:4;stroke-dasharray:none;stroke-opacity:1" />
    <path
       inkscape:connector-curvature="0"
       id="path904"
       d="m 31.47577,209.62244 c 0,0 1.17659,2.15016 1.84958,3.17274 1.35464,2.05832 3.13688,3.82548 4.39288,5.94543 1.30907,2.20953 2.03829,4.72024 3.2355,6.99233 0.80145,1.52102 2.63636,4.43306 2.63636,4.43306 3.14908,1.56213 4.18494,0.45355 2.95966,-3.45294 l -1.36377,-1.71196 c 0,0 -1.25028,-1.43225 -1.81042,-2.19881 -1.74185,-2.38374 -3.00545,-5.09968 -4.80384,-7.44105 -1.65743,-2.15785 -5.48408,-6.04611 -5.48408,-6.04611 z"
       style="fill:#ffc89a;fill-opacity:1;stroke:#000000;stroke-width:0;stroke-linecap:butt;stroke-linejoin:miter;stroke-miterlimit:4;stroke-dasharray:none;stroke-opacity:1"
       sodipodi:nodetypes="caaacccaacc" />
    <path
       inkscape:connector-curvature="0"
       id="path917"
       d="m 43.88025,245.31252 -1.39278,3.27885 6.44162,3.569 c 0.46235,0.21955 0.93467,0.41273 1.62492,0.029 l 6.55769,-2.58245 -1.39279,-3.97524 c -3.95966,4.64941 -7.9471,3.77199 -11.83866,-0.31918 z"
       style="fill:#32b3cc;fill-opacity:1;stroke:#000000;stroke-width:0;stroke-linecap:butt;stroke-linejoin:miter;stroke-miterlimit:4;stroke-dasharray:none;stroke-opacity:1"
       sodipodi:nodetypes="ccccccc" />
    <ellipse
       style="opacity:1;fill:#32b3cc;fill-opacity:1;stroke:#ffffff;stroke-width:0;stroke-linecap:round;stroke-miterlimit:4;stroke-dasharray:none;stroke-opacity:1"
       id="path1046"
       cx="49.816166"
       cy="244.84331"
       rx="0.38983515"
       ry="0.076941147" />
    <flowRoot
       style="font-style:normal;font-variant:normal;font-weight:normal;font-stretch:normal;font-size:10.58333302px;line-height:1.25;font-family:'Calisto MT';-inkscape-font-specification:'Calisto MT';letter-spacing:0px;word-spacing:0px;fill:#000000;fill-opacity:1;stroke:none;stroke-width:0.02645833;stroke-miterlimit:4;stroke-dasharray:none"
       id="flowRoot1174"
       xml:space="preserve"><flowRegion
         style="font-style:normal;font-variant:normal;font-weight:normal;font-stretch:normal;font-family:'Calisto MT';-inkscape-font-specification:'Calisto MT';stroke-width:0.02645833"
         id="flowRegion1176"><rect
           style="font-style:normal;font-variant:normal;font-weight:normal;font-stretch:normal;font-family:'Calisto MT';-inkscape-font-specification:'Calisto MT';stroke-width:0.00700043"
           y="18.505152"
           x="195.10675"
           height="266.73502"
           width="503.5358"
           id="rect1178" /></flowRegion><flowPara
         style="font-style:normal;font-variant:normal;font-weight:normal;font-stretch:normal;font-size:191.91110229px;font-family:'Calisto MT';-inkscape-font-specification:'Calisto MT';stroke-width:0.02645833"
         id="flowPara1180">SKYN</flowPara></flowRoot>    <text
       id="text1184"
       y="285.05896"
       x="282.9389"
       style="font-style:normal;font-variant:normal;font-weight:normal;font-stretch:normal;font-size:6.77144527px;line-height:1.25;font-family:Roboto;-inkscape-font-specification:Roboto;letter-spacing:0px;word-spacing:0px;fill:#000000;fill-opacity:1;stroke:none;stroke-width:0.01692861;stroke-miterlimit:4;stroke-dasharray:none"
       xml:space="preserve"><tspan
         style="font-style:normal;font-variant:normal;font-weight:normal;font-stretch:normal;font-size:112.85742188px;font-family:'Bauhaus 93';-inkscape-font-specification:'Bauhaus 93, ';stroke-width:0.01692861"
         y="285.05896"
         x="282.9389"
         id="tspan1182"
         sodipodi:role="line">SKYN</tspan></text>
    <g
       transform="translate(251.13177,-569.76668)"
       id="g1044">
      <ellipse
         transform="translate(-610.97814,-8.8198944)"
         style="opacity:1;fill:#9aeeff;fill-opacity:1;stroke:#ffffff;stroke-width:0;stroke-miterlimit:4;stroke-dasharray:none;stroke-opacity:0.07523511"
         id="ellipse1014"
         cx="718.69055"
         cy="69.116371"
         rx="12.74433"
         ry="13.301542" />
      <path
         inkscape:connector-curvature="0"
         id="path1016"
         d="M 31.203717,6.6116583 40.82542,27.258229 51.04848,26.723689 Z"
         style="fill:#22c1d0;fill-opacity:1;stroke:#000000;stroke-width:0.26458332px;stroke-linecap:butt;stroke-linejoin:miter;stroke-opacity:1" />
      <path
         inkscape:connector-curvature="0"
         id="path1018"
         d="m 45.357142,27.030505 6.047618,11.528274 15.308038,18.42634 8.598958,23.906993 9.921875,13.701635 L 94.872023,83.348956 90.430801,77.773809 83.532738,71.348213 69.358631,45.645831 51.499256,26.841518 Z"
         style="fill:#9aeeff;fill-opacity:1;stroke:#000000;stroke-width:0.26458332px;stroke-linecap:butt;stroke-linejoin:miter;stroke-opacity:1" />
      <path
         inkscape:connector-curvature="0"
         id="path1020"
         d="m 168.76637,30.054314 c 0.47247,-0.850445 0.56696,-8.693452 1.22842,-9.260416 0.66146,-0.566964 18.23735,-10.394345 18.23735,-10.394345 l -12.09523,17.103423 z"
         style="fill:#9aeeff;fill-opacity:1;stroke:#000000;stroke-width:0.26458332px;stroke-linecap:butt;stroke-linejoin:miter;stroke-opacity:1" />
      <path
         inkscape:connector-curvature="0"
         id="path1022"
         d="m 169.8058,20.699404 -25.22991,25.135416 -4.7247,6.803573 -8.69345,19.65476 -4.63021,3.590774 -6.14211,7.465029 10.58333,11.717263 c 0,0 10.20536,-16.252976 10.20536,-16.630951 0,-0.377979 7.46503,-22.867562 7.46503,-22.867562 0,0 12.28422,-12.18973 12.6622,-12.851188 0.37798,-0.661458 8.03199,-13.134673 8.03199,-13.134673 z"
         style="fill:#22c1d0;fill-opacity:1;stroke:#000000;stroke-width:0.26458332px;stroke-linecap:butt;stroke-linejoin:miter;stroke-opacity:1" />
      <path
         inkscape:connector-curvature="0"
         id="path1024"
         d="m 85.044642,94.121278 9.732888,-10.866816 11.52827,6.709077 -0.75595,21.639141 c 0,0 -15.213542,0.56696 -15.591518,-0.28349 -0.377975,-0.85044 -4.91369,-17.197912 -4.91369,-17.197912 z"
         style="fill:#22c1d0;fill-opacity:1;stroke:#000000;stroke-width:0.26458332px;stroke-linecap:butt;stroke-linejoin:miter;stroke-opacity:1" />
      <path
         inkscape:connector-curvature="0"
         id="path1026"
         d="m 89.769343,111.50818 c -0.28348,0.85045 0.472472,16.63095 0.472472,16.63095 l -4.346726,16.34747 39.120541,1.13393 -5.10268,-14.93006 2.74032,-17.48139 -17.57589,-1.79539 z"
         style="fill:#9aeeff;fill-opacity:1;stroke:#000000;stroke-width:0.26458332px;stroke-linecap:butt;stroke-linejoin:miter;stroke-opacity:1" />
      <path
         inkscape:connector-curvature="0"
         id="path1028"
         d="m 120.47991,82.781993 c 0,0 -14.07961,6.614584 -14.2686,7.181546 -0.18899,0.566965 -0.75595,21.261161 -0.75595,21.261161 l 17.19791,1.98438 8.22099,-18.33185 z"
         style="fill:#9aeeff;fill-opacity:1;stroke:#000000;stroke-width:0.26458332px;stroke-linecap:butt;stroke-linejoin:miter;stroke-opacity:1" />
      <path
         inkscape:connector-curvature="0"
         id="path1030"
         d="m 86.178572,143.91964 -4.535715,10.67783 20.977673,11.62276 5.29167,0.0945 21.35566,-8.40997 -4.53572,-12.94569 z"
         style="fill:#22c1d0;fill-opacity:1;stroke:#000000;stroke-width:0.26458332px;stroke-linecap:butt;stroke-linejoin:miter;stroke-opacity:1" />
      <path
         inkscape:connector-curvature="0"
         id="path1032"
         d="m 81.73735,154.40848 c 0,0.66146 -0.755952,14.83556 -0.755952,14.83556 l 6.992559,17.00893 4.063244,21.26116 14.174109,7.27604 -0.94494,-48.85342 -2.55134,0.0945 z"
         style="fill:#22c1d0;fill-opacity:1;stroke:#000000;stroke-width:0.26458332px;stroke-linecap:butt;stroke-linejoin:miter;stroke-opacity:1" />
      <path
         inkscape:connector-curvature="0"
         id="path1034"
         d="m 129.36235,157.52678 -0.47247,12.37872 -5.48065,14.83557 -3.11831,23.718 -13.98512,6.52009 -1.03943,-49.1369 2.55134,0.28348 z"
         style="fill:#9aeeff;fill-opacity:1;stroke:#000000;stroke-width:0.26458332px;stroke-linecap:butt;stroke-linejoin:miter;stroke-opacity:1" />
      <path
         inkscape:connector-curvature="0"
         id="path1036"
         d="m 92.037201,207.32514 c 0,0 -0.850445,10.20536 -0.850445,10.58334 0,0.37797 4.252232,24.00149 4.252232,24.00149 l 8.882442,27.21427 -3.2128,14.26861 1.6064,2.07888 6.61459,-0.47249 2.55133,-3.77976 -2.55133,-15.21354 -2.83483,-51.49925 z"
         style="fill:#9aeeff;fill-opacity:1;stroke:#000000;stroke-width:0.26458332px;stroke-linecap:butt;stroke-linejoin:miter;stroke-opacity:1" />
      <path
         inkscape:connector-curvature="0"
         id="path1038"
         d="m 106.11682,214.50669 14.45759,-6.42559 -0.0945,16.44196 -5.10268,19.74926 -4.06324,10.11086 0.28348,6.89806 -2.07887,4.81921 z"
         style="fill:#22c1d0;fill-opacity:1;stroke:#000000;stroke-width:0.26458332px;stroke-linecap:butt;stroke-linejoin:miter;stroke-opacity:1" />
      <path
         inkscape:connector-curvature="0"
         id="path1040"
         d="m 102.33705,263.73809 -3.30729,2.64583 2.17336,4.63021 -2.078864,10.48885 1.984374,1.88987 3.49628,-14.36309 z"
         style="fill:#22c1d0;fill-opacity:1;stroke:#000000;stroke-width:0.26458332px;stroke-linecap:butt;stroke-linejoin:miter;stroke-opacity:1" />
      <path
         inkscape:connector-curvature="0"
         id="path1042"
         d="m 94.680229,83.384828 c 1.069078,-0.601356 5.479021,-3.474503 5.479021,-3.474503 l 14.5662,-0.267269 5.47902,3.407685 -14.03165,6.882191 z"
         style="fill:#22c1d0;fill-opacity:1;stroke:#000000;stroke-width:0.26458332px;stroke-linecap:butt;stroke-linejoin:miter;stroke-opacity:1" />
    </g>
    <path
       style="fill:#64482a;fill-opacity:1;stroke:#000000;stroke-width:0;stroke-linecap:butt;stroke-linejoin:miter;stroke-miterlimit:4;stroke-dasharray:none;stroke-opacity:1"
       d="m 50.77455,252.27737 6.40172,-2.68039 c 0,0 0.15124,2.25678 0.024,3.37439 -0.14775,1.29822 -0.59915,2.5436 -0.908,3.81316 -0.4318,1.77495 -0.95188,3.52951 -1.32128,5.31849 -0.22797,1.10408 -0.38173,2.22233 -0.5513,3.33688 -0.16892,1.11023 -0.46427,3.33687 -0.46427,3.33687 0,0 -0.27885,1.7043 -0.43524,2.55344 -0.347,1.88401 -0.7494,3.7574 -1.1161,5.63767 -0.1963,1.00651 -0.3904,2.01347 -0.58032,3.02121 -0.094,0.49862 -0.13927,1.00841 -0.27669,1.49684 -0.13184,0.46859 -0.5223,1.36376 -0.5223,1.36376 l -0.14508,-3.77212 c 0,0 -0.0871,-4.12032 -0.029,-4.38147 0.058,-0.26114 -0.20311,-3.32237 -0.20311,-3.32237 l -0.5223,-4.42498 c 0,0 0.18261,-2.60449 0.20312,-3.9027 0.0152,-0.96282 0.0814,-1.83634 0.0871,-2.68401 0.0177,-2.65494 0.004,-8.15028 0.35908,-8.08467 z"
       id="path1091"
       inkscape:connector-curvature="0"
       sodipodi:nodetypes="ccaaaacaaaacccccssc" />
    <path
       style="fill:#64482a;fill-opacity:1;stroke:#000000;stroke-width:0;stroke-linecap:butt;stroke-linejoin:miter;stroke-miterlimit:4;stroke-dasharray:none;stroke-opacity:1"
       d="m 49.34925,281.93564 c 0,0 -0.67148,0.41853 -0.90278,0.72837 -0.11282,0.15114 -0.19096,0.33619 -0.21543,0.5232 -0.0273,0.20861 0.0446,0.41878 0.0821,0.62579 0.0351,0.19344 0.13336,0.57449 0.13336,0.57449 0,0 -0.56472,2.46709 -0.077,3.54294 0.096,0.21176 0.53448,0.44817 0.53448,0.44817 l 0.81457,-4.82207 z"
       id="path1093"
       inkscape:connector-curvature="0"
       sodipodi:nodetypes="caaacaccc" />
    <path
       style="fill:#e8b582;fill-opacity:1;stroke:#000000;stroke-width:0;stroke-linecap:butt;stroke-linejoin:miter;stroke-miterlimit:4;stroke-dasharray:none;stroke-opacity:1"
       d="m 42.34893,248.54316 c 0.39172,0.11607 6.86236,3.83939 6.86236,3.83939 0.4083,0.23215 0.99724,0.38548 1.51973,0.0182 4.32589,0.59387 6.82361,-0.0877 6.4495,-2.77293 l -1.45507,-4.00601 c -4.3355,-8.23807 -8.62544,-6.59952 -11.86767,-0.31918 z"
       id="path1097"
       inkscape:connector-curvature="0"
       sodipodi:nodetypes="ccccccc" />
    <path
       style="fill:#d8985d;fill-opacity:1;stroke:#000000;stroke-width:0;stroke-linecap:butt;stroke-linejoin:miter;stroke-miterlimit:4;stroke-dasharray:none;stroke-opacity:1"
       d="m 42.37794,248.52338 c 2.47262,1.04564 5.60269,1.34807 6.86236,3.76486 0.95057,2.59826 0.78522,5.69675 1.01558,8.61786 l 0.0906,5.89507 c 0,0 0.31195,3.3091 0.40871,4.9678 0.0838,1.43556 0.11073,2.87393 0.1486,4.31142 0.06,2.27703 0.12457,6.83231 0.12457,6.83231 0,0 1.24427,3.07246 0.86697,4.5796 -0.12363,0.49381 -0.50884,0.94926 -0.95754,1.18967 -0.565,0.30273 -1.42022,0.58151 -1.91508,0.1741 -0.25522,-0.21013 -0.10459,-0.65598 -0.10156,-0.98656 0.0129,-1.40297 0.50779,-4.17835 0.50779,-4.17835 l -0.95693,-4.59016 -1.48482,-6.42256 c 0,0 -0.71302,-3.67649 -1.05162,-5.51808 -0.14534,-0.79043 -0.24972,-1.58876 -0.42062,-2.37406 -0.49211,-2.26137 -1.08951,-4.5003 -1.73921,-6.72153 -0.41844,-1.43054 -1.11707,-2.78474 -1.38927,-4.25016 -0.21641,-1.16505 -0.2112,-2.36562 -0.18259,-3.55025 0.0141,-0.58305 0.17409,-1.74098 0.17409,-1.74098 z"
       id="path1089"
       inkscape:connector-curvature="0"
       sodipodi:nodetypes="ccccaacaaaacccaaaaac" />
    <g
       transform="translate(461.62033,-573.52242)"
       id="g1133"
       style="stroke-width:0.1;stroke-miterlimit:4;stroke-dasharray:none">
      <ellipse
         transform="translate(-610.97814,-8.8198944)"
         style="opacity:1;fill:#00e9ff;fill-opacity:1;stroke:#ffffff;stroke-width:0.1;stroke-miterlimit:4;stroke-dasharray:none;stroke-opacity:0.07523511"
         id="ellipse1103"
         cx="718.69055"
         cy="69.116371"
         rx="12.74433"
         ry="13.301542" />
      <path
         inkscape:connector-curvature="0"
         id="path1105"
         d="M 31.203717,6.6116583 40.82542,27.258229 51.04848,26.723689 Z"
         style="fill:#22c1d0;fill-opacity:1;stroke:#000000;stroke-width:0;stroke-linecap:butt;stroke-linejoin:miter;stroke-miterlimit:4;stroke-dasharray:none;stroke-opacity:1" />
      <path
         inkscape:connector-curvature="0"
         id="path1107"
         d="m 45.357142,27.030505 6.047618,11.528274 15.308038,18.42634 c 0,0 6.123345,15.682212 9.935306,23.172002 2.539576,4.989794 8.585527,14.436626 8.585527,14.436626 l 9.638392,-11.244791 -4.441222,-5.575147 c 0,0 -4.154046,-4.681171 -5.96262,-7.227405 C 78.846033,62.631158 69.358631,45.645831 69.358631,45.645831 L 51.499256,26.841518 Z"
         style="fill:#9aeeff;fill-opacity:1;stroke:#000000;stroke-width:0;stroke-linecap:butt;stroke-linejoin:miter;stroke-miterlimit:4;stroke-dasharray:none;stroke-opacity:1"
         sodipodi:nodetypes="cccacccaccc" />
      <path
         inkscape:connector-curvature="0"
         id="path1109"
         d="m 168.76637,30.054314 c 0.47247,-0.850445 0.56696,-8.693452 1.22842,-9.260416 0.66146,-0.566964 18.23735,-10.394345 18.23735,-10.394345 l -12.09523,17.103423 z"
         style="fill:#00e9ff;fill-opacity:1;stroke:#000000;stroke-width:0;stroke-linecap:butt;stroke-linejoin:miter;stroke-miterlimit:4;stroke-dasharray:none;stroke-opacity:1" />
      <path
         inkscape:connector-curvature="0"
         id="path1111"
         d="m 169.8058,20.699404 -25.22991,25.135416 -4.7247,6.803573 c 0,0 -6.00928,12.154894 -9.56208,17.917508 -1.14092,1.850583 -3.76158,5.328026 -3.76158,5.328026 l -6.14211,7.465029 10.58333,11.717263 c 0,0 6.78783,-10.979341 9.47037,-16.831403 3.34814,-7.304091 8.20002,-22.66711 8.20002,-22.66711 0,0 12.28422,-12.18973 12.6622,-12.851188 0.37798,-0.661458 8.03199,-13.134673 8.03199,-13.134673 z"
         style="fill:#22c1d0;fill-opacity:1;stroke:#000000;stroke-width:0;stroke-linecap:butt;stroke-linejoin:miter;stroke-miterlimit:4;stroke-dasharray:none;stroke-opacity:1"
         sodipodi:nodetypes="cccacccacscc" />
      <path
         inkscape:connector-curvature="0"
         id="path1113"
         d="m 89.769343,111.50818 c -0.28348,0.85045 2.593971,11.42701 1.909046,17.13208 -0.670248,5.58281 -5.7833,15.84634 -5.7833,15.84634 14.373541,14.49324 27.330041,13.98536 39.120541,1.13393 0,0 -5.29235,-10.23779 -5.70404,-15.83209 -0.41375,-5.62239 3.34168,-16.57936 3.34168,-16.57936 l -17.57589,-1.79539 z"
         style="fill:#67cde1;fill-opacity:1;stroke:#000000;stroke-width:0;stroke-linecap:butt;stroke-linejoin:miter;stroke-miterlimit:4;stroke-dasharray:none;stroke-opacity:1"
         sodipodi:nodetypes="caccaccc" />
      <path
         inkscape:connector-curvature="0"
         id="path1115"
         d="m 120.47991,82.781993 c -0.0401,-0.400587 -14.20759,5.334814 -14.2686,7.181546 -1.37626,-1.60404 -0.99425,20.825421 -0.75595,21.261161 4.88767,3.83007 10.07168,6.54889 17.19791,1.98438 l 8.22099,-18.33185 z"
         style="fill:#0086a2;fill-opacity:1;stroke:#000000;stroke-width:0;stroke-linecap:butt;stroke-linejoin:miter;stroke-miterlimit:4;stroke-dasharray:none;stroke-opacity:1"
         sodipodi:nodetypes="cccccc" />
      <path
         inkscape:connector-curvature="0"
         id="path1117"
         d="M 85.044642,94.121278 94.77753,83.254462 c 4.422428,1.386174 8.43746,3.369863 11.52827,6.709077 0.50129,6.982867 1.07234,14.085221 -0.19492,20.983421 -0.3276,4.3887 -16.693977,4.26854 -16.388783,0.0651 -0.377975,-0.85044 -4.677455,-16.890802 -4.677455,-16.890802 z"
         style="fill:#22c1d0;fill-opacity:1;stroke:#000000;stroke-width:0;stroke-linecap:butt;stroke-linejoin:miter;stroke-miterlimit:4;stroke-dasharray:none;stroke-opacity:1"
         sodipodi:nodetypes="cccccc" />
      <path
         inkscape:connector-curvature="0"
         id="path1119"
         d="m 129.22872,157.87757 c 0,0 0.20636,8.05426 -0.33884,12.02793 -0.72557,5.28831 -2.69423,10.33199 -3.87703,15.53715 -1.73547,7.63723 -4.72193,23.01642 -4.72193,23.01642 l -13.98512,6.52009 -1.03943,-49.1369 2.55134,0.28348 z"
         style="fill:#9aeeff;fill-opacity:1;stroke:#000000;stroke-width:0;stroke-linecap:butt;stroke-linejoin:miter;stroke-miterlimit:4;stroke-dasharray:none;stroke-opacity:1"
         sodipodi:nodetypes="caaccccc" />
      <path
         inkscape:connector-curvature="0"
         id="path1121"
         d="m 92.037201,207.32514 c 0,0 0.149764,7.11824 0.55272,10.65016 0.921014,8.07271 2.462521,16.07596 4.252232,24.00149 2.067519,9.15576 7.479277,27.14745 7.479277,27.14745 l -3.2128,14.26861 1.6064,2.07888 6.61459,-0.47249 2.55133,-3.77976 -2.55133,-15.21354 c -0.91811,-17.16859 1.15749,-34.57992 -2.83483,-51.49925 z"
         style="fill:#9aeeff;fill-opacity:1;stroke:#000000;stroke-width:0;stroke-linecap:butt;stroke-linejoin:miter;stroke-miterlimit:4;stroke-dasharray:none;stroke-opacity:1"
         sodipodi:nodetypes="caacccccccc" />
      <path
         inkscape:connector-curvature="0"
         id="path1123"
         d="m 106.11682,214.50669 c 4.43485,-7.13833 9.51888,-5.83735 14.45759,-6.42559 0,0 -0.66451,10.9441 -1.56448,16.34173 -1.07561,6.45104 -3.13825,12.69922 -4.56814,19.08109 -0.81743,3.64831 -1.60363,7.30475 -2.29258,10.97949 -0.39417,2.10239 -0.57061,4.24616 -1.05287,6.33011 -0.41464,1.79176 -1.57774,5.28693 -1.57774,5.28693 -1.10595,-17.19565 0.77376,-34.14922 -3.40178,-51.59376 z"
         style="fill:#22c1d0;fill-opacity:1;stroke:#000000;stroke-width:0;stroke-linecap:butt;stroke-linejoin:miter;stroke-miterlimit:4;stroke-dasharray:none;stroke-opacity:1"
         sodipodi:nodetypes="ccaaaacc" />
      <path
         inkscape:connector-curvature="0"
         id="path1125"
         d="m 81.690103,154.57384 c 0,0.66146 -1.349452,9.81654 -0.708705,14.6702 0.80692,6.11242 3.933345,11.69045 5.656211,17.61029 1.989024,6.83436 5.399592,20.6598 5.399592,20.6598 4.702974,2.45703 5.415579,10.73336 14.174109,7.27604 0.73727,-15.91847 2.23055,-31.57399 -0.94494,-48.85342 l -2.55134,0.0945 z"
         style="fill:#0086a2;fill-opacity:1;stroke:#000000;stroke-width:0;stroke-linecap:butt;stroke-linejoin:miter;stroke-miterlimit:4;stroke-dasharray:none;stroke-opacity:1"
         sodipodi:nodetypes="caaccccc" />
      <path
         inkscape:connector-curvature="0"
         id="path1127"
         d="m 86.178572,143.91964 -4.535715,10.67783 20.977673,11.62276 c 1.50569,0.71496 3.04382,1.34406 5.29167,0.0945 l 21.35566,-8.40997 -4.53572,-12.94569 c -12.89497,15.1412 -25.880381,12.28381 -38.553568,-1.03943 z"
         style="fill:#32b3cc;fill-opacity:1;stroke:#000000;stroke-width:0;stroke-linecap:butt;stroke-linejoin:miter;stroke-miterlimit:4;stroke-dasharray:none;stroke-opacity:1"
         sodipodi:nodetypes="ccccccc" />
      <path
         inkscape:connector-curvature="0"
         id="path1129"
         d="m 102.80952,263.80896 c 0,0 -1.99961,1.69225 -2.33873,2.88207 -0.39381,1.38172 0.54334,4.27585 0.54334,4.27585 l -1.889874,10.5361 1.984374,1.88987 3.49628,-14.36309 z"
         style="fill:#22c1d0;fill-opacity:1;stroke:#000000;stroke-width:0;stroke-linecap:butt;stroke-linejoin:miter;stroke-miterlimit:4;stroke-dasharray:none;stroke-opacity:1"
         sodipodi:nodetypes="caccccc" />
      <ellipse
         style="opacity:1;fill:#32b3cc;fill-opacity:1;stroke:#ffffff;stroke-width:0;stroke-linecap:round;stroke-miterlimit:4;stroke-dasharray:none;stroke-opacity:1"
         id="ellipse1131"
         cx="105.5094"
         cy="142.39162"
         rx="1.2695302"
         ry="0.25056517" />
    </g>
    <path
       style="fill:#5e2c05;fill-opacity:1;stroke:#000000;stroke-width:0;stroke-linecap:butt;stroke-linejoin:miter;stroke-miterlimit:4;stroke-dasharray:none;stroke-opacity:1"
       d="m 52.07516,229.33904 c 0.33342,-0.28706 0.73652,-0.4881 1.06055,-0.78572 0.26773,-0.24591 0.4966,-0.53223 0.7212,-0.81808 0.29504,-0.3755 0.53758,-0.78966 0.82001,-1.17473 0.56379,-0.76867 1.74493,-2.26576 1.74493,-2.26576 l 1.9586,-3.16278 c 0,0 1.26264,-2.55576 2.00212,-3.77213 0.46411,-0.7634 0.94997,-1.5201 1.52336,-2.20524 2.32641,-2.77976 4.82895,-5.47155 7.71834,-7.66031 1.71415,-1.29849 5.61466,-3.17728 5.61466,-3.17728 0,0 -1.97998,3.97581 -3.69958,5.25195 -0.61772,0.45842 -1.58072,0.25679 -2.19073,0.72541 -1.25518,0.96425 -1.66867,2.69382 -2.604,3.97068 -1.07962,1.47384 -2.53525,2.67431 -3.46333,4.24798 -1.12642,1.90998 -2.47798,6.17344 -2.47798,6.17344 l -3.1918,5.62916 -2.46638,5.46958 c 0,0 -0.38485,0.43704 -0.63836,0.56582 -0.48544,0.2466 -1.05152,0.35877 -1.5959,0.34819 -0.60525,-0.0118 -1.2336,-0.15327 -1.75798,-0.45576 -0.34869,-0.20115 -0.64963,-0.50973 -0.84761,-0.86023 -0.15538,-0.27509 -0.19619,-0.6047 -0.23479,-0.91826 -0.084,-0.68241 -0.11676,-1.38707 0.011,-2.06265 0.0836,-0.44228 0.27313,-0.86331 0.48633,-1.25972 0.2005,-0.3728 0.46272,-0.71163 0.73627,-1.03467 0.23457,-0.277 0.496,-0.53207 0.77108,-0.76889 z"
       id="path1101"
       inkscape:connector-curvature="0"
       sodipodi:nodetypes="aaaaccaaacaaaacccaaaaaaaaa" />
  </g>
</svg>
